<svg width="730" height="644" viewBox="0 0 730 644" fill="none" xmlns="http://www.w3.org/2000/svg">
<path fill-rule="evenodd" clip-rule="evenodd" d="M362.599 -56.606C446.286 -39.4115 457.476 58.4865 530.845 95.1509C614.833 137.122 753.748 98.1962 806.741 165.344C857.536 229.708 807.397 319.322 759.782 385.24C717.64 443.581 627.977 460.609 562.787 503.072C492.155 549.079 453.436 641.578 362.599 643.95C272.096 646.312 216.845 565.222 152.744 513.775C99.2775 470.863 47.0272 427.771 21.8739 370.484C-3.78424 312.047 -5.82195 249.951 10.2966 189.348C27.9663 122.912 53.8948 54.793 117.681 10.2618C184.426 -36.3349 276.972 -74.1991 362.599 -56.606Z" fill="#FEF9ED"/>
</svg>
