<svg width="176" height="31" viewBox="0 0 176 31" fill="none" xmlns="http://www.w3.org/2000/svg">
<path d="M68.4025 16.1155C71.3282 14.7456 72.9071 12.0521 72.9071 8.36011C72.9071 3.04277 69.3313 0.000976562 63.0387 0.000976562H52.5898V5.43441C50.8715 4.34308 49.0604 3.39107 47.1796 2.62482C47.3189 2.71769 49.5016 3.99478 52.5898 6.54896C54.2152 7.89571 56.0728 9.56754 58.0232 11.6109V9.42822V4.50562H63.0387C66.0341 4.50562 67.7523 5.85237 67.7523 8.52265C67.7523 11.2626 66.0341 12.6558 63.0387 12.6558H61.5294H58.9752C60.2291 14.0257 61.5062 15.535 62.7368 17.1836C64.2926 19.2502 65.8251 21.5257 67.2415 24.0567H67.3808H70.9799H73.5341L68.4025 16.1155Z" fill="white"/>
<path d="M47.4118 4.92362L48.1084 4.436C45.1827 2.16046 43.0929 0.92981 43.0929 0.92981C44.6486 2.27656 46.0883 3.60009 47.4118 4.92362Z" fill="#EDA908"/>
<path d="M52.1254 7.80286L50.9412 8.66199C52.1951 10.0784 53.3096 11.4484 54.3313 12.7719L55.9567 11.5877C54.6796 10.2177 53.3793 8.94063 52.1254 7.80286Z" fill="#EDA908"/>
<path d="M47.8065 5.31836C48.7585 6.27037 49.6641 7.22238 50.5 8.15117L51.6146 7.33848C50.5465 6.38647 49.5016 5.52734 48.5495 4.7843L47.8065 5.31836Z" fill="#EDA908"/>
<path d="M60.1362 16.673C58.9985 15.0708 57.7678 13.5847 56.514 12.1915L54.8189 13.4222C55.9567 14.9547 56.9319 16.4175 57.7678 17.7875L60.1362 16.673Z" fill="#EDA908"/>
<path d="M58.2787 18.6235C59.4629 20.6204 60.3452 22.4548 60.9721 24.057H64.339C63.3406 21.7118 62.0867 19.5059 60.6935 17.4625L58.2787 18.6235Z" fill="#EDA908"/>
<path d="M52.613 12.8647C49.3158 7.94213 45.74 4.08764 44.1842 2.81055C44.3468 3.01953 48.6889 8.31364 52.613 16.9746V24.0567H55.3994H58.0465H58.3483C58.2554 23.778 58.1625 23.4762 58.0465 23.1975C56.7229 19.5753 54.7028 15.9994 52.613 12.8647Z" fill="white"/>
<path d="M8.54181 4.52884H0.856049V0.000976562H21.8235V4.52884H14.1146V24.0567H8.54181V4.52884Z" fill="white"/>
<path d="M39.4474 18.9019H28.2786L26.1424 24.0567H20.4304L31.1579 0.000976562H36.661L47.4118 24.0567H41.5604L39.4474 18.9019ZM37.6827 14.6759L33.8746 5.45763L30.0666 14.6759H37.6827Z" fill="white"/>
<path d="M95.7554 19.9932V24.4514H77.1331V0.418945H95.3143V4.87715H82.6595V10.1016H93.8282V14.4205H82.6595V19.9932H95.7554Z" fill="white"/>
<path d="M118.813 19.9932V24.4514H100.19V0.418945H118.372V4.87715H105.717V10.1016H116.885V14.4205H105.717V19.9932H118.813Z" fill="white"/>
<path d="M149.184 27.0521C148.395 28.0041 147.466 28.7471 146.351 29.2579C145.237 29.7688 144.029 30.0242 142.683 30.0242C140.895 30.0242 139.293 29.6295 137.83 28.8632C136.39 28.097 134.741 26.727 132.884 24.7997C130.701 24.5211 128.774 23.8245 127.056 22.71C125.337 21.5954 124.014 20.1326 123.062 18.3678C122.11 16.6031 121.646 14.6295 121.646 12.47C121.646 10.1016 122.203 7.98859 123.341 6.08457C124.478 4.20376 126.034 2.71769 128.054 1.62636C130.051 0.558252 132.303 0.000976562 134.811 0.000976562C137.319 0.000976562 139.548 0.535032 141.545 1.62636C143.542 2.69447 145.098 4.18054 146.259 6.08457C147.396 7.96537 147.977 10.1016 147.977 12.47C147.977 15.2564 147.187 17.7177 145.632 19.8307C144.053 21.9437 141.986 23.4065 139.385 24.2192C139.966 24.823 140.523 25.2409 141.057 25.4963C141.591 25.7518 142.172 25.8911 142.799 25.8911C144.285 25.8911 145.585 25.2874 146.723 24.1031L149.184 27.0521ZM128.286 16.4174C128.937 17.5784 129.842 18.5072 130.98 19.1573C132.118 19.8075 133.418 20.1326 134.834 20.1326C136.251 20.1326 137.528 19.8075 138.689 19.1573C139.827 18.5072 140.732 17.6016 141.382 16.4174C142.033 15.2564 142.358 13.9096 142.358 12.4236C142.358 10.9375 142.033 9.61398 141.382 8.42977C140.732 7.26878 139.827 6.33999 138.689 5.68983C137.551 5.03968 136.251 4.7146 134.834 4.7146C133.418 4.7146 132.141 5.03968 130.98 5.68983C129.842 6.33999 128.937 7.24556 128.286 8.42977C127.636 9.59076 127.311 10.9375 127.311 12.4236C127.311 13.9329 127.636 15.2564 128.286 16.4174Z" fill="white"/>
<path d="M160.957 15.0242L157.729 18.3911V24.4747H152.203V0.418945H157.729V11.6573L168.387 0.418945H174.563L164.602 11.1465L175.144 24.4747H168.642L160.957 15.0242Z" fill="white"/>
</svg>
