<svg width="175" height="30" viewBox="0 0 175 30" fill="none" xmlns="http://www.w3.org/2000/svg">
<g clip-path="url(#clip0_1_3539)">
<path d="M67.5464 16.1146C70.4721 14.7446 72.0511 12.0511 72.0511 8.35913C72.0511 3.0418 68.4752 0 62.1827 0H51.7337V5.43344C50.0155 4.3421 48.2043 3.39009 46.3235 2.62384C46.4628 2.71672 48.6455 3.99381 51.7337 6.54799C53.3591 7.89474 55.2167 9.56656 57.1672 11.6099V9.42724V4.50464H62.1827C65.178 4.50464 66.8963 5.85139 66.8963 8.52167C66.8963 11.2616 65.178 12.6548 62.1827 12.6548H60.6734H58.1192C59.3731 14.0248 60.6502 15.5341 61.8808 17.1827C63.4365 19.2492 64.969 21.5248 66.3854 24.0557H66.5248H70.1238H72.678L67.5464 16.1146Z" fill="#18191F"/>
<path d="M46.5557 4.92252L47.2523 4.4349C44.3266 2.15936 42.2368 0.928711 42.2368 0.928711C43.7926 2.27546 45.2322 3.59899 46.5557 4.92252Z" fill="#EDA908"/>
<path d="M51.2694 7.80176L50.0851 8.66089C51.339 10.0773 52.4536 11.4473 53.4752 12.7708L55.1006 11.5866C53.8235 10.2166 52.5232 8.93953 51.2694 7.80176Z" fill="#EDA908"/>
<path d="M46.9505 5.31726C47.9025 6.26927 48.8081 7.22128 49.644 8.15008L50.7585 7.33738C49.6904 6.38537 48.6455 5.52624 47.6935 4.7832L46.9505 5.31726Z" fill="#EDA908"/>
<path d="M59.2802 16.6719C58.1424 15.0697 56.9118 13.5836 55.6579 12.1904L53.9628 13.4211C55.1006 14.9536 56.0759 16.4164 56.9118 17.7864L59.2802 16.6719Z" fill="#EDA908"/>
<path d="M57.4226 18.6222C58.6068 20.6191 59.4892 22.4534 60.1161 24.0556H63.483C62.4845 21.7104 61.2307 19.5045 59.8375 17.4612L57.4226 18.6222Z" fill="#EDA908"/>
<path d="M51.757 12.8638C48.4598 7.94115 44.8839 4.08666 43.3282 2.80957C43.4907 3.01855 47.8328 8.31267 51.757 16.9737V24.0557H54.5433H57.1904H57.4923C57.3994 23.7771 57.3065 23.4752 57.1904 23.1966C55.8669 19.5743 53.8467 15.9984 51.757 12.8638Z" fill="#18191F"/>
<path d="M7.68576 4.52786H0V0H20.9675V4.52786H13.2585V24.0557H7.68576V4.52786Z" fill="#18191F"/>
<path d="M38.5913 18.9009H27.4226L25.2864 24.0557H19.5743L30.3019 0H35.805L46.5557 24.0557H40.7043L38.5913 18.9009ZM36.8266 14.6749L33.0186 5.45666L29.2105 14.6749H36.8266Z" fill="#18191F"/>
<path d="M94.8994 19.9923V24.4505H76.2771V0.417969H94.4582V4.87617H81.8034V10.1006H92.9721V14.4195H81.8034V19.9923H94.8994Z" fill="#18191F"/>
<path d="M117.957 19.9923V24.4505H99.3344V0.417969H117.515V4.87617H104.861V10.1006H116.029V14.4195H104.861V19.9923H117.957Z" fill="#18191F"/>
<path d="M148.328 27.0511C147.539 28.0031 146.61 28.7461 145.495 29.257C144.381 29.7678 143.173 30.0232 141.827 30.0232C140.039 30.0232 138.437 29.6285 136.974 28.8622C135.534 28.096 133.885 26.726 132.028 24.7988C129.845 24.5201 127.918 23.8235 126.2 22.709C124.481 21.5944 123.158 20.1316 122.206 18.3669C121.254 16.6022 120.789 14.6285 120.789 12.469C120.789 10.1006 121.347 7.98762 122.485 6.08359C123.622 4.20279 125.178 2.71672 127.198 1.62539C129.195 0.557276 131.447 0 133.955 0C136.463 0 138.692 0.534056 140.689 1.62539C142.686 2.6935 144.241 4.17957 145.402 6.08359C146.54 7.9644 147.121 10.1006 147.121 12.469C147.121 15.2554 146.331 17.7167 144.776 19.8297C143.197 21.9427 141.13 23.4056 138.529 24.2183C139.11 24.822 139.667 25.2399 140.201 25.4954C140.735 25.7508 141.316 25.8901 141.943 25.8901C143.429 25.8901 144.729 25.2864 145.867 24.1022L148.328 27.0511ZM127.43 16.4164C128.08 17.5774 128.986 18.5062 130.124 19.1563C131.262 19.8065 132.562 20.1316 133.978 20.1316C135.395 20.1316 136.672 19.8065 137.833 19.1563C138.971 18.5062 139.876 17.6006 140.526 16.4164C141.176 15.2554 141.502 13.9087 141.502 12.4226C141.502 10.9365 141.176 9.613 140.526 8.42879C139.876 7.2678 138.971 6.33901 137.833 5.68885C136.695 5.0387 135.395 4.71362 133.978 4.71362C132.562 4.71362 131.285 5.0387 130.124 5.68885C128.986 6.33901 128.08 7.24458 127.43 8.42879C126.78 9.58978 126.455 10.9365 126.455 12.4226C126.455 13.9319 126.78 15.2554 127.43 16.4164Z" fill="#18191F"/>
<path d="M160.101 15.0232L156.873 18.3901V24.4737H151.347V0.417969H156.873V11.6564L167.531 0.417969H173.707L163.746 11.1455L174.288 24.4737H167.786L160.101 15.0232Z" fill="#18191F"/>
</g>
<defs>
<clipPath id="clip0_1_3539">
<rect width="174.288" height="30" fill="white"/>
</clipPath>
</defs>
</svg>
