<svg width="18" height="18" viewBox="0 0 18 18" fill="none" xmlns="http://www.w3.org/2000/svg">
<path fill-rule="evenodd" clip-rule="evenodd" d="M9.00081 0.490723C6.68327 0.490723 6.39243 0.500856 5.48219 0.542279C4.57374 0.583879 3.95364 0.727703 3.41106 0.938727C2.84981 1.15669 2.37372 1.44824 1.8994 1.92274C1.42473 2.39705 1.13317 2.87315 0.914502 3.43422C0.702944 3.97698 0.558942 4.59725 0.518053 5.50535C0.477342 6.41558 0.466675 6.70661 0.466675 9.02414C0.466675 11.3417 0.476986 11.6316 0.518231 12.5419C0.560009 13.4503 0.703833 14.0704 0.914679 14.613C1.13282 15.1743 1.42437 15.6503 1.89887 16.1247C2.37301 16.5993 2.8491 16.8916 3.40999 17.1096C3.95293 17.3206 4.57321 17.4644 5.48148 17.506C6.39171 17.5474 6.68238 17.5576 8.99974 17.5576C11.3175 17.5576 11.6074 17.5474 12.5176 17.506C13.4261 17.4644 14.0469 17.3206 14.5898 17.1096C15.1509 16.8916 15.6263 16.5993 16.1004 16.1247C16.5751 15.6503 16.8667 15.1743 17.0853 14.6132C17.2951 14.0704 17.4391 13.4501 17.4818 12.542C17.5227 11.6318 17.5333 11.3417 17.5333 9.02414C17.5333 6.70661 17.5227 6.41576 17.4818 5.50553C17.4391 4.59708 17.2951 3.97698 17.0853 3.4344C16.8667 2.87315 16.5751 2.39705 16.1004 1.92274C15.6258 1.44807 15.1511 1.15651 14.5893 0.938727C14.0453 0.727703 13.4249 0.583879 12.5164 0.542279C11.6062 0.500856 11.3164 0.490723 8.99814 0.490723H9.00081ZM8.23525 2.02849C8.46245 2.02814 8.71597 2.02849 9.00077 2.02849C11.2792 2.02849 11.5492 2.03667 12.449 2.07756C13.281 2.1156 13.7326 2.25463 14.0334 2.37143C14.4316 2.5261 14.7155 2.71099 15.014 3.00966C15.3127 3.30833 15.4976 3.59278 15.6526 3.991C15.7694 4.29145 15.9086 4.74301 15.9464 5.57502C15.9873 6.47458 15.9962 6.74481 15.9962 9.02217C15.9962 11.2995 15.9873 11.5697 15.9464 12.4693C15.9084 13.3013 15.7694 13.7529 15.6526 14.0533C15.4979 14.4516 15.3127 14.7351 15.014 15.0336C14.7153 15.3323 14.4318 15.5172 14.0334 15.6718C13.7329 15.7892 13.281 15.9278 12.449 15.9659C11.5494 16.0068 11.2792 16.0157 9.00077 16.0157C6.72217 16.0157 6.45212 16.0068 5.55256 15.9659C4.72055 15.9275 4.26899 15.7885 3.96801 15.6717C3.56978 15.517 3.28533 15.3321 2.98666 15.0334C2.68799 14.7348 2.5031 14.451 2.34808 14.0526C2.23128 13.7522 2.09208 13.3006 2.05421 12.4686C2.01332 11.569 2.00514 11.2988 2.00514 9.02003C2.00514 6.74125 2.01332 6.47245 2.05421 5.57289C2.09226 4.74088 2.23128 4.28932 2.34808 3.98851C2.50275 3.59029 2.68799 3.30584 2.98666 3.00717C3.28533 2.7085 3.56978 2.52361 3.96801 2.36858C4.26881 2.25125 4.72055 2.11258 5.55256 2.07436C6.33977 2.0388 6.64484 2.02814 8.23525 2.02636V2.02849ZM13.5558 3.4454C12.9905 3.4454 12.5318 3.90354 12.5318 4.46905C12.5318 5.03439 12.9905 5.49307 13.5558 5.49307C14.1212 5.49307 14.5799 5.03439 14.5799 4.46905C14.5799 3.90372 14.1212 3.4454 13.5558 3.4454ZM9.00082 4.64185C6.58071 4.64185 4.61855 6.60401 4.61855 9.02412C4.61855 11.4442 6.58071 13.4055 9.00082 13.4055C11.4209 13.4055 13.3824 11.4442 13.3824 9.02412C13.3824 6.60401 11.4209 4.64185 9.00082 4.64185ZM9.00079 6.17965C10.5717 6.17965 11.8453 7.45308 11.8453 9.02412C11.8453 10.595 10.5717 11.8686 9.00079 11.8686C7.42975 11.8686 6.15632 10.595 6.15632 9.02412C6.15632 7.45308 7.42975 6.17965 9.00079 6.17965Z" fill="white"/>
</svg>
