<svg width="164" height="31" viewBox="0 0 164 31" fill="none" xmlns="http://www.w3.org/2000/svg">
<path d="M1.15495 24.2552C0.60934 24.1696 0.0976574 24.5425 0.0120784 25.0881C-0.0735004 25.6338 0.299432 26.1454 0.845046 26.231L1.15495 24.2552ZM163.493 1.59115L152.026 0.240631L156.59 10.8473L163.493 1.59115ZM1.77147 26.3701C2.31791 26.4503 2.82584 26.0722 2.90596 25.5258C2.98608 24.9793 2.60805 24.4714 2.0616 24.3913L1.77147 26.3701ZM7.75755 25.1595C7.20955 25.0907 6.70961 25.4793 6.6409 26.0273C6.57219 26.5753 6.96073 27.0752 7.50873 27.1439L7.75755 25.1595ZM9.41592 27.3779C9.96427 27.4437 10.4621 27.0525 10.528 26.5041C10.5938 25.9558 10.2026 25.4579 9.65423 25.3921L9.41592 27.3779ZM15.3551 26.0331C14.8059 25.9754 14.3138 26.3739 14.2561 26.9231C14.1984 27.4724 14.5969 27.9645 15.1461 28.0222L15.3551 26.0331ZM17.0523 28.2179C17.6019 28.273 18.092 27.8722 18.1471 27.3227C18.2023 26.7732 17.8015 26.283 17.2519 26.2279L17.0523 28.2179ZM22.9685 26.7604C22.4183 26.713 21.9338 27.1207 21.8865 27.671C21.8392 28.2213 22.2469 28.7057 22.7972 28.753L22.9685 26.7604ZM24.7126 28.9131C25.2631 28.9578 25.7456 28.5478 25.7903 27.9973C25.835 27.4468 25.4249 26.9644 24.8745 26.9197L24.7126 28.9131ZM30.5995 27.3425C30.0485 27.3059 29.5721 27.7229 29.5355 28.274C29.4988 28.8251 29.9159 29.3015 30.467 29.3381L30.5995 27.3425ZM32.3875 29.4608C32.9388 29.4946 33.4131 29.0752 33.4469 28.5239C33.4807 27.9727 33.0613 27.4984 32.51 27.4646L32.3875 29.4608ZM38.2341 27.771C37.6824 27.7459 37.2148 28.1727 37.1897 28.7245C37.1646 29.2762 37.5914 29.7438 38.1431 29.7689L38.2341 27.771ZM40.0681 29.8513C40.62 29.8733 41.0852 29.4439 41.1073 28.892C41.1294 28.3402 40.6999 27.8749 40.1481 27.8529L40.0681 29.8513ZM45.8796 28.0328C45.3274 28.0203 44.8697 28.4579 44.8573 29.01C44.8448 29.5622 45.2824 30.0198 45.8345 30.0323L45.8796 28.0328ZM47.7557 30.0697C48.3079 30.0787 48.7629 29.6384 48.7719 29.0862C48.7809 28.534 48.3406 28.079 47.7884 28.0699L47.7557 30.0697ZM53.5237 28.108C52.9714 28.1099 52.5252 28.5592 52.5271 29.1115C52.529 29.6637 52.9783 30.1099 53.5305 30.108L53.5237 28.108ZM55.4524 30.0947C56.0047 30.0889 56.4477 29.6365 56.4419 29.0843C56.4361 28.532 55.9837 28.089 55.4315 28.0948L55.4524 30.0947ZM61.1601 27.9704C60.6081 27.9888 60.1756 28.4513 60.1941 29.0032C60.2125 29.5552 60.6749 29.9877 61.2269 29.9693L61.1601 27.9704ZM63.151 29.897C63.7028 29.874 64.1315 29.408 64.1084 28.8562C64.0854 28.3044 63.6194 27.8757 63.0676 27.8988L63.151 29.897ZM68.7843 27.584C68.2333 27.622 67.8175 28.0995 67.8556 28.6505C67.8936 29.2015 68.3711 29.6173 68.9221 29.5792L68.7843 27.584ZM70.8428 29.437C71.3934 29.3934 71.8044 28.9118 71.7609 28.3612C71.7173 27.8107 71.2357 27.3997 70.6851 27.4432L70.8428 29.437ZM76.3801 26.8997C75.8313 26.9616 75.4366 27.4566 75.4985 28.0054C75.5603 28.5542 76.0554 28.949 76.6042 28.8871L76.3801 26.8997ZM78.5156 28.6598C79.0636 28.5911 79.4522 28.0912 79.3835 27.5432C79.3148 26.9952 78.8149 26.6066 78.2669 26.6753L78.5156 28.6598ZM83.9205 25.8496C83.3759 25.9413 83.0087 26.4571 83.1004 27.0017C83.192 27.5463 83.7078 27.9135 84.2525 27.8219L83.9205 25.8496ZM86.2141 27.4767C86.7575 27.3777 87.1176 26.8569 87.0186 26.3136C86.9195 25.7703 86.3988 25.4101 85.8554 25.5092L86.2141 27.4767ZM91.8994 24.3061C91.3595 24.4221 91.0158 24.9539 91.1318 25.4939C91.2478 26.0338 91.7795 26.3775 92.3195 26.2615L91.8994 24.3061ZM94.3421 25.8172C94.881 25.6963 95.2198 25.1614 95.0989 24.6225C94.9779 24.0836 94.443 23.7448 93.9041 23.8658L94.3421 25.8172ZM99.9038 22.4392C99.368 22.5734 99.0425 23.1165 99.1767 23.6522C99.3109 24.1879 99.854 24.5134 100.39 24.3792L99.9038 22.4392ZM102.398 23.8681C102.933 23.7299 103.255 23.1845 103.116 22.6497C102.978 22.115 102.433 21.7935 101.898 21.9317L102.398 23.8681ZM107.856 20.3264C107.324 20.4753 107.014 21.0272 107.163 21.559C107.312 22.0908 107.863 22.4012 108.395 22.2523L107.856 20.3264ZM110.388 21.6876C110.919 21.5354 111.225 20.9816 111.073 20.4507C110.921 19.9198 110.367 19.6129 109.836 19.7651L110.388 21.6876ZM115.756 18.0119C115.228 18.1732 114.93 18.7321 115.091 19.2603C115.253 19.7885 115.812 20.086 116.34 19.9247L115.756 18.0119ZM118.318 19.3151C118.845 19.151 119.14 18.5905 118.975 18.0631C118.811 17.5358 118.251 17.2413 117.724 17.4053L118.318 19.3151ZM123.609 15.5254C123.085 15.6972 122.798 16.2621 122.97 16.7869C123.142 17.3118 123.707 17.5979 124.232 17.426L123.609 15.5254ZM126.193 16.7786C126.717 16.6043 127.001 16.0381 126.827 15.5141C126.652 14.99 126.086 14.7065 125.562 14.8808L126.193 16.7786ZM131.408 12.8927C130.886 13.074 130.61 13.6438 130.791 14.1655C130.972 14.6872 131.542 14.9632 132.064 14.7819L131.408 12.8927ZM134.022 14.0969C134.543 13.9134 134.817 13.3424 134.633 12.8215C134.45 12.3005 133.879 12.027 133.358 12.2104L134.022 14.0969ZM139.174 10.1219C138.655 10.3117 138.389 10.886 138.579 11.4047C138.768 11.9233 139.343 12.1899 139.861 12.0001L139.174 10.1219ZM141.805 11.2845C142.323 11.0927 142.587 10.5173 142.395 9.99942C142.203 9.48152 141.628 9.21721 141.11 9.40906L141.805 11.2845ZM146.891 7.22892C146.376 7.42681 146.118 8.00521 146.316 8.52083C146.514 9.03645 147.092 9.29402 147.608 9.09614L146.891 7.22892ZM149.54 8.3502C150.055 8.15031 150.31 7.5709 150.11 7.05606C149.911 6.54122 149.331 6.2859 148.816 6.4858L149.54 8.3502ZM154.562 4.21539C154.05 4.42148 153.802 5.00392 154.008 5.51631C154.214 6.02871 154.796 6.27702 155.309 6.07094L154.562 4.21539ZM157.229 5.29377C157.74 5.08547 157.986 4.50196 157.778 3.99046C157.57 3.47897 156.986 3.23318 156.475 3.44147L157.229 5.29377ZM162.174 1.07015C161.666 1.28703 161.43 1.8746 161.647 2.38252C161.864 2.89044 162.452 3.12637 162.96 2.90949L162.174 1.07015ZM1 25.2431C0.845046 26.231 0.845056 26.231 0.845068 26.231C0.845073 26.231 0.845086 26.231 0.845097 26.231C0.845119 26.231 0.845145 26.231 0.845177 26.231C0.84524 26.2311 0.845322 26.2311 0.845424 26.2311C0.845627 26.2311 0.845907 26.2312 0.846264 26.2312C0.846979 26.2313 0.848002 26.2315 0.849332 26.2317C0.851991 26.2321 0.85588 26.2327 0.860989 26.2335C0.871206 26.2351 0.886306 26.2374 0.906225 26.2405C0.946062 26.2467 1.00517 26.2557 1.08305 26.2676C1.23881 26.2912 1.46964 26.3259 1.77147 26.3701L2.0616 24.3913C1.76325 24.3476 1.53581 24.3134 1.38335 24.2902C1.30712 24.2787 1.24963 24.2698 1.21139 24.2639C1.19227 24.261 1.17797 24.2588 1.16854 24.2573C1.16383 24.2566 1.16033 24.256 1.15807 24.2557C1.15693 24.2555 1.15611 24.2554 1.15559 24.2553C1.15533 24.2552 1.15515 24.2552 1.15504 24.2552C1.15499 24.2552 1.15495 24.2552 1.15494 24.2552C1.15493 24.2552 1.15493 24.2552 1.15493 24.2552C1.15493 24.2552 1.15494 24.2552 1.15494 24.2552C1.15495 24.2552 1.15495 24.2552 1 25.2431ZM7.50873 27.1439C8.10941 27.2192 8.74583 27.2975 9.41592 27.3779L9.65423 25.3921C8.98772 25.3121 8.35482 25.2343 7.75755 25.1595L7.50873 27.1439ZM15.1461 28.0222C15.7659 28.0873 16.4015 28.1526 17.0523 28.2179L17.2519 26.2279C16.6043 26.1629 15.9718 26.0979 15.3551 26.0331L15.1461 28.0222ZM22.7972 28.753C23.4263 28.8071 24.065 28.8605 24.7126 28.9131L24.8745 26.9197C24.2301 26.8674 23.5946 26.8142 22.9685 26.7604L22.7972 28.753ZM30.467 29.3381C31.1011 29.3802 31.7415 29.4212 32.3875 29.4608L32.51 27.4646C31.8674 27.4251 31.2304 27.3844 30.5995 27.3425L30.467 29.3381ZM38.1431 29.7689C38.7809 29.798 39.4227 29.8254 40.0681 29.8513L40.1481 27.8529C39.5064 27.8272 38.8683 27.7999 38.2341 27.771L38.1431 29.7689ZM45.8345 30.0323C46.4725 30.0467 47.113 30.0592 47.7557 30.0697L47.7884 28.0699C47.15 28.0595 46.5136 28.0471 45.8796 28.0328L45.8345 30.0323ZM53.5305 30.108C54.1701 30.1058 54.8108 30.1014 55.4524 30.0947L55.4315 28.0948C54.7947 28.1015 54.1586 28.1059 53.5237 28.108L53.5305 30.108ZM61.2269 29.9693C61.8684 29.9478 62.5098 29.9238 63.151 29.897L63.0676 27.8988C62.4321 27.9253 61.7961 27.9491 61.1601 27.9704L61.2269 29.9693ZM68.9221 29.5792C69.5636 29.5349 70.204 29.4875 70.8428 29.437L70.6851 27.4432C70.053 27.4932 69.4193 27.5401 68.7843 27.584L68.9221 29.5792ZM76.6042 28.8871C77.2439 28.815 77.8811 28.7392 78.5156 28.6598L78.2669 26.6753C77.6409 26.7537 77.0118 26.8285 76.3801 26.8997L76.6042 28.8871ZM84.2525 27.8219C84.5688 27.7686 84.8843 27.7143 85.1987 27.6589L84.8514 25.6892C84.5422 25.7438 84.2319 25.7972 83.9205 25.8496L84.2525 27.8219ZM85.1987 27.6589C85.5365 27.5993 85.875 27.5386 86.2141 27.4767L85.8554 25.5092C85.52 25.5703 85.1853 25.6304 84.8514 25.6892L85.1987 27.6589ZM92.3195 26.2615C92.9923 26.117 93.6666 25.9688 94.3421 25.8172L93.9041 23.8658C93.2345 24.0161 92.5661 24.1629 91.8994 24.3061L92.3195 26.2615ZM100.39 24.3792C101.059 24.2115 101.729 24.0411 102.398 23.8681L101.898 21.9317C101.233 22.1035 100.568 22.2727 99.9038 22.4392L100.39 24.3792ZM108.395 22.2523C109.061 22.066 109.725 21.8777 110.388 21.6876L109.836 19.7651C109.177 19.954 108.517 20.1412 107.856 20.3264L108.395 22.2523ZM116.34 19.9247C117.002 19.7227 117.661 19.5194 118.318 19.3151L117.724 17.4053C117.07 17.6086 116.414 17.8109 115.756 18.0119L116.34 19.9247ZM124.232 17.426C124.89 17.2106 125.544 16.9947 126.193 16.7786L125.562 14.8808C124.915 15.096 124.264 15.3109 123.609 15.5254L124.232 17.426ZM132.064 14.7819C132.723 14.553 133.376 14.3245 134.022 14.0969L133.358 12.2104C132.714 12.4372 132.064 12.6647 131.408 12.8927L132.064 14.7819ZM139.861 12.0001C140.519 11.7596 141.167 11.5209 141.805 11.2845L141.11 9.40906C140.474 9.64457 139.829 9.8823 139.174 10.1219L139.861 12.0001ZM147.608 9.09614C148.268 8.84285 148.912 8.59403 149.54 8.3502L148.816 6.4858C148.191 6.72871 147.549 6.97659 146.891 7.22892L147.608 9.09614ZM155.309 6.07094C155.984 5.79943 156.624 5.53996 157.229 5.29377L156.475 3.44147C155.873 3.6866 155.235 3.94499 154.562 4.21539L155.309 6.07094Z" fill="#D9DBE1"/>
</svg>
