<svg width="164" height="29" viewBox="0 0 164 29" fill="none" xmlns="http://www.w3.org/2000/svg">
<path d="M1.0949 3.8429C0.545105 3.89531 0.0569233 3.4921 0.004513 2.94231C-0.0478973 2.39252 0.35531 1.90434 0.905103 1.85193L1.0949 3.8429ZM163.493 26.4994L152.124 28.5188L156.06 17.6632L163.493 26.4994ZM1.83569 1.7683C2.3859 1.72046 2.87072 2.1277 2.91857 2.67791C2.96641 3.22812 2.55917 3.71294 2.00896 3.76078L1.83569 1.7683ZM7.73463 3.31792C7.18368 3.35626 6.70596 2.94071 6.66762 2.38976C6.62927 1.83881 7.04482 1.36109 7.59578 1.32275L7.73463 3.31792ZM9.50977 1.19379C10.0609 1.15786 10.5368 1.5755 10.5727 2.12661C10.6086 2.67773 10.191 3.15362 9.63989 3.18955L9.50977 1.19379ZM15.3649 2.85172C14.8134 2.88094 14.3427 2.45754 14.3134 1.90603C14.2842 1.35452 14.7076 0.883743 15.2591 0.85452L15.3649 2.85172ZM17.1687 0.757069C17.7203 0.729993 18.1895 1.15522 18.2165 1.70684C18.2436 2.25846 17.8184 2.72759 17.2668 2.75466L17.1687 0.757069ZM22.9989 2.50681C22.447 2.52745 21.9828 2.09677 21.9622 1.54488C21.9415 0.992977 22.3722 0.528845 22.9241 0.508209L22.9989 2.50681ZM24.8407 0.440298C25.3927 0.421825 25.8552 0.854313 25.8736 1.40629C25.8921 1.95826 25.4596 2.42071 24.9076 2.43918L24.8407 0.440298ZM30.6418 2.28159C30.0896 2.29342 29.6324 1.85539 29.6206 1.30323C29.6087 0.751075 30.0468 0.293876 30.5989 0.282051L30.6418 2.28159ZM32.5215 0.244851C33.0737 0.235314 33.5291 0.675232 33.5386 1.22743C33.5482 1.77964 33.1083 2.23502 32.5561 2.24455L32.5215 0.244851ZM38.2833 2.18222C37.731 2.18462 37.2813 1.73887 37.2789 1.18659C37.2765 0.634308 37.7223 0.184644 38.2746 0.182235L38.2833 2.18222ZM40.1973 0.17817C40.7496 0.178254 41.1973 0.626038 41.1972 1.17832C41.1971 1.73061 40.7493 2.17825 40.197 2.17817L40.1973 0.17817ZM45.9286 2.21933C45.3763 2.21137 44.9351 1.75725 44.9431 1.20503C44.951 0.652799 45.4051 0.211581 45.9574 0.219537L45.9286 2.21933ZM47.8746 0.251958C48.4268 0.26269 48.8657 0.719021 48.855 1.2712C48.8443 1.82338 48.3879 2.26231 47.8358 2.25158L47.8746 0.251958ZM53.5659 2.40838C53.014 2.38875 52.5825 1.9254 52.6021 1.37347C52.6217 0.821533 53.0851 0.390015 53.637 0.409645L53.5659 2.40838ZM55.554 0.483312C56.1058 0.506113 56.5347 0.971932 56.5119 1.52375C56.4891 2.07556 56.0233 2.50441 55.4715 2.48161L55.554 0.483312ZM61.1917 2.77035C60.6404 2.73727 60.2203 2.26354 60.2534 1.71224C60.2865 1.16095 60.7602 0.740861 61.3115 0.773946L61.1917 2.77035ZM63.2293 0.895473C63.7803 0.932269 64.1972 1.40882 64.1604 1.95988C64.1236 2.51094 63.6471 2.92782 63.096 2.89103L63.2293 0.895473ZM68.8026 3.33408C68.2525 3.2851 67.8463 2.79944 67.8952 2.24933C67.9442 1.69922 68.4299 1.29298 68.98 1.34195L68.8026 3.33408ZM70.8935 1.52006C71.4431 1.5735 71.8455 2.06243 71.792 2.61212C71.7386 3.16181 71.2497 3.56411 70.7 3.51068L70.8935 1.52006ZM76.386 4.13895C75.8379 4.07068 75.449 3.57105 75.5173 3.023C75.5855 2.47496 76.0852 2.08602 76.6332 2.15429L76.386 4.13895ZM78.5375 2.40112C79.0848 2.47489 79.4687 2.97839 79.395 3.52573C79.3212 4.07307 78.8177 4.45697 78.2704 4.3832L78.5375 2.40112ZM83.9206 5.24021C83.3761 5.14776 83.0096 4.63141 83.1021 4.08692C83.1945 3.54243 83.7109 3.17598 84.2554 3.26843L83.9206 5.24021ZM86.2016 3.61069C86.7451 3.70889 87.1061 4.22907 87.0079 4.77256C86.9097 5.31604 86.3895 5.67702 85.846 5.57883L86.2016 3.61069ZM91.837 6.73403C91.2959 6.62349 90.9468 6.09522 91.0574 5.55411C91.1679 5.013 91.6962 4.66396 92.2373 4.7745L91.837 6.73403ZM94.2393 5.19057C94.7797 5.30475 95.1252 5.83535 95.011 6.3757C94.8968 6.91606 94.3662 7.26154 93.8259 7.14737L94.2393 5.19057ZM99.7858 8.46471C99.2476 8.34075 98.9118 7.80398 99.0358 7.26578C99.1597 6.72759 99.6965 6.39178 100.235 6.51573L99.7858 8.46471ZM102.228 6.98064C102.766 7.10754 103.099 7.64614 102.972 8.18365C102.845 8.72116 102.306 9.05403 101.769 8.92714L102.228 6.98064ZM107.7 10.3755C107.165 10.2405 106.84 9.697 106.975 9.16145C107.11 8.6259 107.653 8.30113 108.189 8.43606L107.7 10.3755ZM110.172 8.94043C110.707 9.07782 111.029 9.62283 110.891 10.1578C110.754 10.6927 110.209 11.015 109.674 10.8776L110.172 8.94043ZM115.579 12.4351C115.046 12.2909 114.731 11.7418 114.875 11.2087C115.019 10.6755 115.568 10.3602 116.101 10.5044L115.579 12.4351ZM118.076 11.0427C118.609 11.189 118.922 11.7393 118.775 12.2719C118.629 12.8044 118.079 13.1175 117.546 12.9712L118.076 11.0427ZM123.431 14.6237C122.9 14.4714 122.593 13.9176 122.745 13.3868C122.897 12.8559 123.451 12.5489 123.982 12.7011L123.431 14.6237ZM125.941 13.2667C126.472 13.4208 126.777 13.9756 126.623 14.506C126.468 15.0363 125.914 15.3413 125.383 15.1873L125.941 13.2667ZM131.24 16.921C130.711 16.7616 130.412 16.2038 130.571 15.675C130.73 15.1462 131.288 14.8467 131.817 15.0061L131.24 16.921ZM133.782 15.6017C134.31 15.7628 134.608 16.3216 134.447 16.8499C134.285 17.3782 133.727 17.6758 133.198 17.5148L133.782 15.6017ZM139.037 19.3249C138.51 19.1589 138.218 18.5974 138.384 18.0706C138.55 17.5438 139.111 17.2514 139.638 17.4173L139.037 19.3249ZM141.587 18.0347C142.113 18.2022 142.404 18.7646 142.237 19.2909C142.069 19.8171 141.507 20.1079 140.98 19.9404L141.587 18.0347ZM146.798 21.821C146.273 21.6488 145.987 21.0838 146.159 20.559C146.332 20.0343 146.897 19.7485 147.421 19.9207L146.798 21.821ZM149.364 20.5615C149.888 20.7353 150.172 21.3012 149.998 21.8254C149.825 22.3496 149.259 22.6337 148.735 22.4599L149.364 20.5615ZM154.525 24.4087C154.002 24.2301 153.723 23.6616 153.902 23.139C154.08 22.6164 154.649 22.3376 155.171 22.5162L154.525 24.4087ZM157.108 23.1818C157.63 23.3621 157.907 23.9315 157.727 24.4535C157.547 24.9755 156.977 25.2525 156.455 25.0721L157.108 23.1818ZM162.216 27.0999C161.696 26.9127 161.426 26.3398 161.614 25.8202C161.801 25.3006 162.374 25.031 162.893 25.2181L162.216 27.0999ZM1 2.84741C0.905103 1.85193 0.905112 1.85192 0.905122 1.85192C0.905127 1.85192 0.905138 1.85192 0.905148 1.85192C0.905168 1.85192 0.905193 1.85192 0.905222 1.85191C0.905281 1.85191 0.90536 1.8519 0.905458 1.85189C0.905654 1.85187 0.905928 1.85185 0.90628 1.85181C0.906982 1.85175 0.907995 1.85165 0.909317 1.85152C0.91196 1.85127 0.91584 1.85091 0.920948 1.85042C0.931165 1.84946 0.946294 1.84804 0.966272 1.84618C1.00623 1.84245 1.06558 1.83695 1.14381 1.82981C1.30028 1.81553 1.53227 1.79469 1.83569 1.7683L2.00896 3.76078C1.70845 3.78692 1.47928 3.80751 1.32556 3.82153C1.24871 3.82855 1.19071 3.83392 1.1521 3.83752C1.13279 3.83932 1.11833 3.84068 1.10877 3.84159C1.104 3.84204 1.10044 3.84237 1.09813 3.84259C1.09697 3.8427 1.09612 3.84278 1.09558 3.84283C1.09531 3.84286 1.09512 3.84288 1.09501 3.84289C1.09495 3.84289 1.09491 3.8429 1.09489 3.8429C1.09489 3.8429 1.09488 3.8429 1.09488 3.8429C1.09488 3.8429 1.09489 3.8429 1.09489 3.8429C1.09489 3.8429 1.0949 3.8429 1 2.84741ZM7.59578 1.32275C8.19864 1.28079 8.83732 1.23763 9.50977 1.19379L9.63989 3.18955C8.97042 3.2332 8.33465 3.27616 7.73463 3.31792L7.59578 1.32275ZM15.2591 0.85452C15.88 0.821621 16.5168 0.789067 17.1687 0.757069L17.2668 2.75466C16.6175 2.78653 15.9833 2.81895 15.3649 2.85172L15.2591 0.85452ZM22.9241 0.508209C23.5537 0.484668 24.1927 0.461985 24.8407 0.440298L24.9076 2.43918C24.2623 2.46078 23.6259 2.48337 22.9989 2.50681L22.9241 0.508209ZM30.5989 0.282051C31.2338 0.268455 31.8748 0.25602 32.5215 0.244851L32.5561 2.24455C31.9121 2.25567 31.2739 2.26805 30.6418 2.28159L30.5989 0.282051ZM38.2746 0.182235C38.9116 0.179457 39.5526 0.178073 40.1973 0.17817L40.197 2.17817C39.5554 2.17807 38.9174 2.17945 38.2833 2.18222L38.2746 0.182235ZM45.9574 0.219537C46.5941 0.228712 47.2333 0.239493 47.8746 0.251958L47.8358 2.25158C47.1979 2.23918 46.562 2.22846 45.9286 2.21933L45.9574 0.219537ZM53.637 0.409645C54.275 0.432337 54.9141 0.456867 55.554 0.483312L55.4715 2.48161C54.8354 2.45532 54.2001 2.43094 53.5659 2.40838L53.637 0.409645ZM61.3115 0.773946C61.9509 0.812316 62.5902 0.8528 63.2293 0.895473L63.096 2.89103C62.4615 2.84866 61.8267 2.80846 61.1917 2.77035L61.3115 0.773946ZM68.98 1.34195C69.6191 1.39886 70.257 1.4582 70.8935 1.52006L70.7 3.51068C70.069 3.44935 69.4365 3.39051 68.8026 3.33408L68.98 1.34195ZM76.6332 2.15429C77.2705 2.23368 77.9054 2.31593 78.5375 2.40112L78.2704 4.3832C77.6451 4.29893 77.0168 4.21753 76.386 4.13895L76.6332 2.15429ZM84.2554 3.26843C84.5708 3.32199 84.8852 3.37639 85.1986 3.43165L84.8513 5.40127C84.5422 5.34675 84.2319 5.29307 83.9206 5.24021L84.2554 3.26843ZM85.1986 3.43165C85.5323 3.49049 85.8666 3.55017 86.2016 3.61069L85.846 5.57883C85.5138 5.5188 85.1822 5.45961 84.8513 5.40127L85.1986 3.43165ZM92.2373 4.7745C92.9032 4.91055 93.5707 5.04929 94.2393 5.19057L93.8259 7.14737C93.1615 7.00699 92.4984 6.86916 91.837 6.73403L92.2373 4.7745ZM100.235 6.51573C100.899 6.66874 101.564 6.82376 102.228 6.98064L101.769 8.92714C101.108 8.77108 100.447 8.61688 99.7858 8.46471L100.235 6.51573ZM108.189 8.43606C108.851 8.60283 109.512 8.77101 110.172 8.94043L109.674 10.8776C109.017 10.7089 108.359 10.5415 107.7 10.3755L108.189 8.43606ZM116.101 10.5044C116.762 10.6831 117.42 10.8626 118.076 11.0427L117.546 12.9712C116.893 12.7918 116.237 12.613 115.579 12.4351L116.101 10.5044ZM123.982 12.7011C124.639 12.8895 125.292 13.0781 125.941 13.2667L125.383 15.1873C124.736 14.9993 124.085 14.8114 123.431 14.6237L123.982 12.7011ZM131.817 15.0061C132.478 15.2053 133.133 15.4039 133.782 15.6017L133.198 17.5148C132.552 17.3176 131.899 17.1196 131.24 16.921L131.817 15.0061ZM139.638 17.4173C140.297 17.625 140.947 17.8309 141.587 18.0347L140.98 19.9404C140.342 19.7372 139.694 19.5319 139.037 19.3249L139.638 17.4173ZM147.421 19.9207C148.085 20.1385 148.732 20.3522 149.364 20.5615L148.735 22.4599C148.105 22.2512 147.459 22.0381 146.798 21.821L147.421 19.9207ZM155.171 22.5162C155.852 22.7489 156.499 22.9711 157.108 23.1818L156.455 25.0721C155.847 24.8621 155.203 24.6406 154.525 24.4087L155.171 22.5162Z" fill="#D9DBE1"/>
</svg>
