<svg width="24" height="25" viewBox="0 0 24 25" fill="none" xmlns="http://www.w3.org/2000/svg">
<path d="M19.5 9.77417C19.5 16.5242 12 21.7742 12 21.7742C12 21.7742 4.5 16.5242 4.5 9.77417C4.5 7.78505 5.29018 5.87739 6.6967 4.47087C8.10322 3.06435 10.0109 2.27417 12 2.27417C13.9891 2.27417 15.8968 3.06435 17.3033 4.47087C18.7098 5.87739 19.5 7.78505 19.5 9.77417Z" fill="#EDA908"/>
<path d="M12 12.7742C13.6569 12.7742 15 11.431 15 9.77417C15 8.11732 13.6569 6.77417 12 6.77417C10.3431 6.77417 9 8.11732 9 9.77417C9 11.431 10.3431 12.7742 12 12.7742Z" fill="#444444"/>
</svg>
