<svg width="18" height="18" viewBox="0 0 18 18" fill="none" xmlns="http://www.w3.org/2000/svg">
<path d="M5.67187 8.72396C6.44364 10.3177 7.73239 11.6032 9.32812 12.3708C9.44583 12.4266 9.57603 12.4507 9.70589 12.4408C9.83575 12.431 9.96081 12.3875 10.0687 12.3146L12.4125 10.749C12.516 10.6787 12.6357 10.6359 12.7603 10.6244C12.8849 10.6129 13.0104 10.6332 13.125 10.6833L17.5125 12.5677C17.6625 12.6301 17.7877 12.7401 17.869 12.8807C17.9504 13.0213 17.9832 13.1847 17.9625 13.3458C17.8234 14.4312 17.2937 15.4287 16.4723 16.1517C15.6509 16.8748 14.5943 17.2737 13.5 17.274C10.1185 17.274 6.87548 15.9307 4.48439 13.5396C2.0933 11.1485 0.75 7.90547 0.75 4.52396C0.750247 3.4297 1.1492 2.37303 1.87221 1.55167C2.59522 0.730298 3.59274 0.200518 4.67812 0.0614566C4.83922 0.040763 5.00266 0.0736007 5.14326 0.154913C5.28386 0.236226 5.39384 0.361504 5.45625 0.511457L7.34062 4.90833C7.38963 5.02116 7.41013 5.1443 7.40032 5.26692C7.39051 5.38954 7.35069 5.50786 7.28437 5.61146L5.71875 7.99271C5.64905 8.10041 5.60814 8.22419 5.59993 8.35222C5.59172 8.48024 5.61649 8.60824 5.67187 8.72396Z" fill="#EDA908"/>
</svg>
