<svg width="25" height="25" viewBox="0 0 25 25" fill="none" xmlns="http://www.w3.org/2000/svg">
<path d="M7.83984 12.625C8.80455 14.6172 10.4155 16.224 12.4102 17.1836C12.5573 17.2532 12.72 17.2834 12.8824 17.2711C13.0447 17.2587 13.201 17.2044 13.3359 17.1133L16.2656 15.1562C16.3951 15.0684 16.5446 15.0149 16.7004 15.0005C16.8561 14.9862 17.013 15.0115 17.1562 15.0742L22.6406 17.4297C22.8281 17.5077 22.9847 17.6451 23.0863 17.8209C23.1879 17.9967 23.229 18.2009 23.2031 18.4023C23.0293 19.759 22.3671 21.0059 21.3404 21.9097C20.3137 22.8135 18.9928 23.3122 17.625 23.3125C13.3981 23.3125 9.34435 21.6334 6.35549 18.6445C3.36662 15.6556 1.6875 11.6019 1.6875 7.37498C1.68781 6.00716 2.1865 4.68632 3.09026 3.65961C3.99403 2.6329 5.24093 1.97068 6.59766 1.79685C6.79903 1.77099 7.00332 1.81203 7.17908 1.91367C7.35483 2.01531 7.4923 2.17191 7.57031 2.35935L9.92578 7.85545C9.98703 7.99648 10.0127 8.15041 10.0004 8.30368C9.98814 8.45695 9.93836 8.60485 9.85547 8.73435L7.89844 11.7109C7.81131 11.8455 7.76017 12.0003 7.74991 12.1603C7.73965 12.3203 7.77062 12.4803 7.83984 12.625V12.625Z" stroke="#EDA908" stroke-width="2" stroke-linecap="round" stroke-linejoin="round"/>
</svg>
